G04 Layer_Color=128*
%FSLAX43Y43*%
%MOMM*%
G71*
G01*
G75*
%ADD16C,0.051*%
D16*
X194588Y302031D02*
X197588D01*
X196088Y300531D02*
Y303531D01*
X194588Y332031D02*
X197588D01*
X196088Y330531D02*
Y333531D01*
X217880Y292100D02*
X224080D01*
X220980Y289000D02*
Y295200D01*
X197560Y292100D02*
X203760D01*
X200660Y289000D02*
Y295200D01*
X215860Y340360D02*
X223560D01*
X219710Y336510D02*
Y344210D01*
X210410Y340360D02*
X213410D01*
X211910Y338860D02*
Y341860D01*
X197560Y279400D02*
X203760D01*
X200660Y276300D02*
Y282500D01*
X217880Y279400D02*
X224080D01*
X220980Y276300D02*
Y282500D01*
X198080Y361950D02*
X205780D01*
X201930Y358100D02*
Y365800D01*
X192630Y361950D02*
X195630D01*
X194130Y360450D02*
Y363450D01*
X209070Y379500D02*
X212570D01*
X210820Y377750D02*
Y381250D01*
X198080Y318770D02*
X205780D01*
X201930Y314920D02*
Y322620D01*
X192630Y318770D02*
X195630D01*
X194130Y317270D02*
Y320270D01*
X197560Y266700D02*
X203760D01*
X200660Y263600D02*
Y269800D01*
X217880Y266700D02*
X224080D01*
X220980Y263600D02*
Y269800D01*
X209070Y257000D02*
X212570D01*
X210820Y255250D02*
Y258750D01*
X219300Y361950D02*
X225200D01*
X222250Y359000D02*
Y364900D01*
M02*
