G04 Layer_Physical_Order=2*
G04 Layer_Color=16711680*
%FSLAX43Y43*%
%MOMM*%
G71*
G01*
G75*
%ADD18C,1.524*%
%ADD19C,0.508*%
%ADD22C,1.270*%
%ADD31C,2.000*%
%ADD32C,1.524*%
%ADD33O,3.048X1.524*%
%ADD34C,0.762*%
%ADD35R,4.425X4.500*%
%ADD36R,4.200X4.450*%
G36*
X163200Y125600D02*
X125600D01*
Y169200D01*
X163200D01*
Y125600D01*
D02*
G37*
%LPC*%
G36*
X138227Y168335D02*
X137656D01*
Y167501D01*
X139227D01*
X139217Y167575D01*
X139114Y167822D01*
X138952Y168035D01*
X138739Y168197D01*
X138492Y168300D01*
X138227Y168335D01*
D02*
G37*
G36*
X137275D02*
X136703D01*
X136438Y168300D01*
X136191Y168197D01*
X135978Y168035D01*
X135816Y167822D01*
X135713Y167575D01*
X135703Y167501D01*
X137275D01*
Y168335D01*
D02*
G37*
G36*
X139227Y167120D02*
X137656D01*
Y166285D01*
X138227D01*
X138492Y166320D01*
X138739Y166423D01*
X138952Y166585D01*
X139114Y166798D01*
X139217Y167045D01*
X139227Y167120D01*
D02*
G37*
G36*
X137275D02*
X135703D01*
X135713Y167045D01*
X135816Y166798D01*
X135978Y166585D01*
X136191Y166423D01*
X136438Y166320D01*
X136703Y166285D01*
X137275D01*
Y167120D01*
D02*
G37*
G36*
X129972Y168335D02*
X128448D01*
X128183Y168300D01*
X127936Y168197D01*
X127723Y168035D01*
X127561Y167822D01*
X127458Y167575D01*
X127423Y167310D01*
X127458Y167045D01*
X127561Y166798D01*
X127723Y166585D01*
X127936Y166423D01*
X128183Y166320D01*
X128448Y166285D01*
X129972D01*
X130237Y166320D01*
X130484Y166423D01*
X130697Y166585D01*
X130859Y166798D01*
X130962Y167045D01*
X130997Y167310D01*
X130962Y167575D01*
X130859Y167822D01*
X130697Y168035D01*
X130484Y168197D01*
X130237Y168300D01*
X129972Y168335D01*
D02*
G37*
G36*
X160940Y168205D02*
X160613Y168162D01*
X160308Y168035D01*
X160046Y167834D01*
X159845Y167572D01*
X159718Y167267D01*
X159675Y166940D01*
X159718Y166613D01*
X159845Y166308D01*
X160046Y166046D01*
X160308Y165845D01*
X160613Y165718D01*
X160940Y165675D01*
X161267Y165718D01*
X161572Y165845D01*
X161834Y166046D01*
X162035Y166308D01*
X162162Y166613D01*
X162205Y166940D01*
X162162Y167267D01*
X162035Y167572D01*
X161834Y167834D01*
X161572Y168035D01*
X161267Y168162D01*
X160940Y168205D01*
D02*
G37*
G36*
X155860D02*
X155533Y168162D01*
X155228Y168035D01*
X154966Y167834D01*
X154765Y167572D01*
X154638Y167267D01*
X154595Y166940D01*
X154638Y166613D01*
X154765Y166308D01*
X154966Y166046D01*
X155228Y165845D01*
X155533Y165718D01*
X155860Y165675D01*
X156187Y165718D01*
X156492Y165845D01*
X156754Y166046D01*
X156955Y166308D01*
X157082Y166613D01*
X157125Y166940D01*
X157082Y167267D01*
X156955Y167572D01*
X156754Y167834D01*
X156492Y168035D01*
X156187Y168162D01*
X155860Y168205D01*
D02*
G37*
G36*
X129020Y165795D02*
X128448D01*
X128183Y165760D01*
X127936Y165657D01*
X127723Y165495D01*
X127561Y165282D01*
X127458Y165035D01*
X127448Y164961D01*
X129020D01*
Y165795D01*
D02*
G37*
G36*
X138227D02*
X136703D01*
X136438Y165760D01*
X136191Y165657D01*
X135978Y165495D01*
X135816Y165282D01*
X135713Y165035D01*
X135678Y164770D01*
X135713Y164505D01*
X135816Y164258D01*
X135978Y164045D01*
X136191Y163883D01*
X136438Y163780D01*
X136703Y163745D01*
X138227D01*
X138492Y163780D01*
X138739Y163883D01*
X138952Y164045D01*
X139114Y164258D01*
X139217Y164505D01*
X139252Y164770D01*
X139217Y165035D01*
X139114Y165282D01*
X138952Y165495D01*
X138739Y165657D01*
X138492Y165760D01*
X138227Y165795D01*
D02*
G37*
G36*
X129020Y164580D02*
X127448D01*
X127458Y164505D01*
X127561Y164258D01*
X127723Y164045D01*
X127936Y163883D01*
X128183Y163780D01*
X128448Y163745D01*
X129020D01*
Y164580D01*
D02*
G37*
G36*
X133858Y165824D02*
X133610Y165775D01*
X133400Y165634D01*
X133260Y165424D01*
X133211Y165176D01*
X133260Y164929D01*
X133400Y164719D01*
X133610Y164578D01*
X133752Y164550D01*
X135741Y162561D01*
X135713Y162495D01*
X135678Y162230D01*
X135713Y161965D01*
X135816Y161718D01*
X135978Y161505D01*
X136191Y161343D01*
X136438Y161240D01*
X136703Y161205D01*
X138227D01*
X138492Y161240D01*
X138739Y161343D01*
X138952Y161505D01*
X139114Y161718D01*
X139217Y161965D01*
X139252Y162230D01*
X139217Y162495D01*
X139114Y162742D01*
X138952Y162955D01*
X138739Y163117D01*
X138492Y163220D01*
X138227Y163255D01*
X136703D01*
X136535Y163233D01*
X134485Y165283D01*
X134456Y165424D01*
X134316Y165634D01*
X134106Y165775D01*
X133858Y165824D01*
D02*
G37*
G36*
X158400Y163125D02*
X158073Y163082D01*
X157768Y162955D01*
X157506Y162754D01*
X157305Y162492D01*
X157178Y162187D01*
X157135Y161860D01*
X157178Y161533D01*
X157305Y161228D01*
X157506Y160966D01*
X157768Y160765D01*
X158073Y160638D01*
X158400Y160595D01*
X158727Y160638D01*
X159032Y160765D01*
X159294Y160966D01*
X159495Y161228D01*
X159622Y161533D01*
X159665Y161860D01*
X159622Y162187D01*
X159495Y162492D01*
X159294Y162754D01*
X159032Y162955D01*
X158727Y163082D01*
X158400Y163125D01*
D02*
G37*
G36*
X129972Y165795D02*
X129400D01*
Y164770D01*
Y163745D01*
X129972D01*
X130237Y163780D01*
X130484Y163883D01*
X130697Y164045D01*
X130859Y164258D01*
X130909Y164377D01*
X131041Y164364D01*
X131050Y164319D01*
X131191Y164109D01*
X131401Y163969D01*
X131542Y163940D01*
X135289Y160193D01*
X135317Y160052D01*
X135458Y159842D01*
X135668Y159701D01*
X135916Y159652D01*
X136163Y159701D01*
X136373Y159842D01*
X136514Y160052D01*
X136563Y160300D01*
X136514Y160547D01*
X136373Y160757D01*
X136163Y160898D01*
X136022Y160926D01*
X132275Y164673D01*
X132247Y164815D01*
X132106Y165025D01*
X131896Y165165D01*
X131648Y165214D01*
X131401Y165165D01*
X131191Y165025D01*
X131108Y164901D01*
X130976Y164931D01*
X130962Y165035D01*
X130859Y165282D01*
X130697Y165495D01*
X130484Y165657D01*
X130237Y165760D01*
X129972Y165795D01*
D02*
G37*
G36*
X129090Y160744D02*
Y159191D01*
X130644D01*
X130629Y159344D01*
X130528Y159674D01*
X130365Y159979D01*
X130146Y160246D01*
X129879Y160465D01*
X129574Y160628D01*
X129244Y160729D01*
X129090Y160744D01*
D02*
G37*
G36*
X128710D02*
X128556Y160729D01*
X128226Y160628D01*
X127921Y160465D01*
X127654Y160246D01*
X127435Y159979D01*
X127272Y159674D01*
X127171Y159344D01*
X127156Y159191D01*
X128710D01*
Y160744D01*
D02*
G37*
G36*
X161786Y159420D02*
Y158611D01*
X162595D01*
X162585Y158685D01*
X162482Y158932D01*
X162320Y159145D01*
X162107Y159307D01*
X161860Y159410D01*
X161786Y159420D01*
D02*
G37*
G36*
X138227Y159445D02*
X137656D01*
Y158611D01*
X139227D01*
X139217Y158685D01*
X139114Y158932D01*
X138952Y159145D01*
X138739Y159307D01*
X138492Y159410D01*
X138227Y159445D01*
D02*
G37*
G36*
X137275D02*
X136703D01*
X136438Y159410D01*
X136191Y159307D01*
X135978Y159145D01*
X135816Y158932D01*
X135713Y158685D01*
X135703Y158611D01*
X137275D01*
Y159445D01*
D02*
G37*
G36*
X161405Y159420D02*
X161330Y159410D01*
X161083Y159307D01*
X160870Y159145D01*
X160708Y158932D01*
X160605Y158685D01*
X160595Y158611D01*
X161405D01*
Y159420D01*
D02*
G37*
G36*
X140564Y160109D02*
X140316Y160060D01*
X140106Y159919D01*
X139966Y159709D01*
X139916Y159461D01*
X139966Y159214D01*
X140106Y159004D01*
X140316Y158863D01*
X140458Y158835D01*
X140604Y158689D01*
X140772Y158576D01*
X140970Y158537D01*
X141899D01*
X141919Y158517D01*
X141947Y158375D01*
X142087Y158165D01*
X142297Y158025D01*
X142545Y157976D01*
X142793Y158025D01*
X143003Y158165D01*
X143143Y158375D01*
X143192Y158623D01*
X143143Y158871D01*
X143003Y159081D01*
X142793Y159221D01*
X142651Y159250D01*
X142479Y159421D01*
X142311Y159534D01*
X142113Y159573D01*
X141189D01*
X141162Y159709D01*
X141022Y159919D01*
X140812Y160060D01*
X140564Y160109D01*
D02*
G37*
G36*
X162595Y158230D02*
X161786D01*
Y157420D01*
X161860Y157430D01*
X162107Y157533D01*
X162320Y157695D01*
X162482Y157908D01*
X162585Y158155D01*
X162595Y158230D01*
D02*
G37*
G36*
X161405D02*
X160595D01*
X160605Y158155D01*
X160708Y157908D01*
X160870Y157695D01*
X161083Y157533D01*
X161330Y157430D01*
X161405Y157420D01*
Y158230D01*
D02*
G37*
G36*
X159055Y159445D02*
X158790Y159410D01*
X158543Y159307D01*
X158330Y159145D01*
X158168Y158932D01*
X158065Y158685D01*
X158030Y158420D01*
X158065Y158155D01*
X158168Y157908D01*
X158330Y157695D01*
X158543Y157533D01*
X158790Y157430D01*
X159055Y157395D01*
X159320Y157430D01*
X159567Y157533D01*
X159780Y157695D01*
X159942Y157908D01*
X160045Y158155D01*
X160080Y158420D01*
X160045Y158685D01*
X159942Y158932D01*
X159780Y159145D01*
X159567Y159307D01*
X159320Y159410D01*
X159055Y159445D01*
D02*
G37*
G36*
X156515D02*
X156250Y159410D01*
X156003Y159307D01*
X155790Y159145D01*
X155628Y158932D01*
X155525Y158685D01*
X155490Y158420D01*
X155525Y158155D01*
X155628Y157908D01*
X155790Y157695D01*
X156003Y157533D01*
X156250Y157430D01*
X156515Y157395D01*
X156780Y157430D01*
X157027Y157533D01*
X157240Y157695D01*
X157402Y157908D01*
X157505Y158155D01*
X157540Y158420D01*
X157505Y158685D01*
X157402Y158932D01*
X157240Y159145D01*
X157027Y159307D01*
X156780Y159410D01*
X156515Y159445D01*
D02*
G37*
G36*
X139227Y158230D02*
X137656D01*
Y157395D01*
X138227D01*
X138492Y157430D01*
X138739Y157533D01*
X138952Y157695D01*
X139114Y157908D01*
X139217Y158155D01*
X139227Y158230D01*
D02*
G37*
G36*
X137275D02*
X135703D01*
X135713Y158155D01*
X135816Y157908D01*
X135978Y157695D01*
X136191Y157533D01*
X136438Y157430D01*
X136703Y157395D01*
X137275D01*
Y158230D01*
D02*
G37*
G36*
X130644Y158809D02*
X129090D01*
Y157256D01*
X129244Y157271D01*
X129574Y157372D01*
X129879Y157535D01*
X130146Y157754D01*
X130365Y158021D01*
X130528Y158326D01*
X130629Y158656D01*
X130644Y158809D01*
D02*
G37*
G36*
X128710D02*
X127156D01*
X127171Y158656D01*
X127272Y158326D01*
X127435Y158021D01*
X127654Y157754D01*
X127921Y157535D01*
X128226Y157372D01*
X128556Y157271D01*
X128710Y157256D01*
Y158809D01*
D02*
G37*
G36*
X138227Y156905D02*
X136703D01*
X136438Y156870D01*
X136191Y156767D01*
X135978Y156605D01*
X135816Y156392D01*
X135713Y156145D01*
X135678Y155880D01*
X135713Y155615D01*
X135816Y155368D01*
X135978Y155155D01*
X136191Y154993D01*
X136438Y154890D01*
X136703Y154855D01*
X138227D01*
X138492Y154890D01*
X138739Y154993D01*
X138952Y155155D01*
X139114Y155368D01*
X139217Y155615D01*
X139252Y155880D01*
X139217Y156145D01*
X139114Y156392D01*
X138952Y156605D01*
X138739Y156767D01*
X138492Y156870D01*
X138227Y156905D01*
D02*
G37*
G36*
X153213Y156781D02*
X152965Y156732D01*
X152755Y156592D01*
X152615Y156382D01*
X152587Y156240D01*
X152389Y156042D01*
X150902D01*
X150703Y156003D01*
X150535Y155891D01*
X150059Y155414D01*
X149917Y155386D01*
X149707Y155246D01*
X149567Y155036D01*
X149518Y154788D01*
X149567Y154540D01*
X149707Y154330D01*
X149917Y154190D01*
X150165Y154140D01*
X150413Y154190D01*
X150623Y154330D01*
X150763Y154540D01*
X150791Y154682D01*
X151116Y155006D01*
X152603D01*
X152802Y155046D01*
X152970Y155158D01*
X153319Y155508D01*
X153461Y155536D01*
X153671Y155676D01*
X153811Y155886D01*
X153860Y156134D01*
X153811Y156382D01*
X153671Y156592D01*
X153461Y156732D01*
X153213Y156781D01*
D02*
G37*
G36*
X138227Y154365D02*
X136703D01*
X136438Y154330D01*
X136191Y154227D01*
X135978Y154065D01*
X135816Y153852D01*
X135713Y153605D01*
X135678Y153340D01*
X135713Y153075D01*
X135816Y152828D01*
X135978Y152615D01*
X136191Y152453D01*
X136438Y152350D01*
X136703Y152315D01*
X138227D01*
X138492Y152350D01*
X138739Y152453D01*
X138952Y152615D01*
X139114Y152828D01*
X139217Y153075D01*
X139252Y153340D01*
X139217Y153605D01*
X139114Y153852D01*
X138952Y154065D01*
X138739Y154227D01*
X138492Y154330D01*
X138227Y154365D01*
D02*
G37*
G36*
X130037Y153035D02*
X129466D01*
Y152201D01*
X131037D01*
X131027Y152275D01*
X130924Y152522D01*
X130762Y152735D01*
X130549Y152897D01*
X130302Y153000D01*
X130037Y153035D01*
D02*
G37*
G36*
X129085D02*
X128513D01*
X128248Y153000D01*
X128001Y152897D01*
X127788Y152735D01*
X127626Y152522D01*
X127523Y152275D01*
X127513Y152201D01*
X129085D01*
Y153035D01*
D02*
G37*
G36*
X131037Y151820D02*
X129466D01*
Y150985D01*
X130037D01*
X130302Y151020D01*
X130549Y151123D01*
X130762Y151285D01*
X130924Y151498D01*
X131027Y151745D01*
X131037Y151820D01*
D02*
G37*
G36*
X129085D02*
X127513D01*
X127523Y151745D01*
X127626Y151498D01*
X127788Y151285D01*
X128001Y151123D01*
X128248Y151020D01*
X128513Y150985D01*
X129085D01*
Y151820D01*
D02*
G37*
G36*
X157023Y154368D02*
X156775Y154319D01*
X156565Y154179D01*
X156425Y153969D01*
X156397Y153827D01*
X155742Y153173D01*
X155630Y153005D01*
X155591Y152807D01*
Y152005D01*
X155139Y151553D01*
X154997Y151525D01*
X154787Y151385D01*
X154647Y151175D01*
X154598Y150927D01*
X154647Y150679D01*
X154787Y150469D01*
X154997Y150329D01*
X155245Y150280D01*
X155493Y150329D01*
X155703Y150469D01*
X155843Y150679D01*
X155871Y150821D01*
X156475Y151424D01*
X156587Y151592D01*
X156627Y151791D01*
X156627Y151791D01*
Y152592D01*
X157129Y153095D01*
X157271Y153123D01*
X157481Y153263D01*
X157621Y153473D01*
X157670Y153721D01*
X157621Y153969D01*
X157481Y154179D01*
X157271Y154319D01*
X157023Y154368D01*
D02*
G37*
G36*
X138227Y150555D02*
X136703D01*
X136438Y150520D01*
X136191Y150417D01*
X135978Y150255D01*
X135816Y150042D01*
X135713Y149795D01*
X135678Y149530D01*
X135713Y149265D01*
X135816Y149018D01*
X135978Y148805D01*
X136191Y148643D01*
X136438Y148540D01*
X136703Y148505D01*
X138227D01*
X138492Y148540D01*
X138739Y148643D01*
X138952Y148805D01*
X139114Y149018D01*
X139217Y149265D01*
X139252Y149530D01*
X139217Y149795D01*
X139114Y150042D01*
X138952Y150255D01*
X138739Y150417D01*
X138492Y150520D01*
X138227Y150555D01*
D02*
G37*
G36*
X130037Y150495D02*
X128513D01*
X128248Y150460D01*
X128001Y150357D01*
X127788Y150195D01*
X127626Y149982D01*
X127523Y149735D01*
X127488Y149470D01*
X127523Y149205D01*
X127626Y148958D01*
X127788Y148745D01*
X128001Y148583D01*
X128248Y148480D01*
X128513Y148445D01*
X130037D01*
X130302Y148480D01*
X130549Y148583D01*
X130762Y148745D01*
X130924Y148958D01*
X131027Y149205D01*
X131062Y149470D01*
X131027Y149735D01*
X130924Y149982D01*
X130762Y150195D01*
X130549Y150357D01*
X130302Y150460D01*
X130037Y150495D01*
D02*
G37*
G36*
X147269Y147536D02*
X147022Y147487D01*
X146902Y147406D01*
X142633D01*
X142513Y147487D01*
X142266Y147536D01*
X142018Y147487D01*
X141808Y147346D01*
X141667Y147136D01*
X141618Y146888D01*
X141667Y146641D01*
X141808Y146431D01*
X142018Y146290D01*
X142266Y146241D01*
X142513Y146290D01*
X142633Y146370D01*
X146902D01*
X147022Y146290D01*
X147269Y146241D01*
X147517Y146290D01*
X147727Y146431D01*
X147868Y146641D01*
X147917Y146888D01*
X147868Y147136D01*
X147727Y147346D01*
X147517Y147487D01*
X147269Y147536D01*
D02*
G37*
G36*
X138227Y148015D02*
X137656D01*
Y147181D01*
X139227D01*
X139217Y147255D01*
X139114Y147502D01*
X138952Y147715D01*
X138739Y147877D01*
X138492Y147980D01*
X138227Y148015D01*
D02*
G37*
G36*
X137275D02*
X136703D01*
X136438Y147980D01*
X136191Y147877D01*
X135978Y147715D01*
X135816Y147502D01*
X135713Y147255D01*
X135703Y147181D01*
X137275D01*
Y148015D01*
D02*
G37*
G36*
X160096Y150863D02*
X159849Y150814D01*
X159639Y150674D01*
X159498Y150464D01*
X159470Y150322D01*
X158471Y149323D01*
X157848D01*
X157650Y149284D01*
X157482Y149172D01*
X156180Y147870D01*
X156039Y147842D01*
X155829Y147702D01*
X155688Y147492D01*
X155639Y147244D01*
X155688Y146996D01*
X155829Y146786D01*
X156039Y146646D01*
X156286Y146597D01*
X156534Y146646D01*
X156744Y146786D01*
X156885Y146996D01*
X156913Y147138D01*
X158062Y148287D01*
X158686D01*
X158884Y148327D01*
X159052Y148439D01*
X160203Y149589D01*
X160344Y149618D01*
X160554Y149758D01*
X160695Y149968D01*
X160744Y150216D01*
X160695Y150464D01*
X160554Y150674D01*
X160344Y150814D01*
X160096Y150863D01*
D02*
G37*
G36*
X139227Y146800D02*
X137656D01*
Y145965D01*
X138227D01*
X138492Y146000D01*
X138739Y146103D01*
X138952Y146265D01*
X139114Y146478D01*
X139217Y146725D01*
X139227Y146800D01*
D02*
G37*
G36*
X137275D02*
X135703D01*
X135713Y146725D01*
X135816Y146478D01*
X135978Y146265D01*
X136191Y146103D01*
X136438Y146000D01*
X136703Y145965D01*
X137275D01*
Y146800D01*
D02*
G37*
G36*
X130037Y147955D02*
X128513D01*
X128248Y147920D01*
X128001Y147817D01*
X127788Y147655D01*
X127626Y147442D01*
X127523Y147195D01*
X127488Y146930D01*
X127523Y146665D01*
X127626Y146418D01*
X127788Y146205D01*
X128001Y146043D01*
X128248Y145940D01*
X128513Y145905D01*
X130037D01*
X130302Y145940D01*
X130549Y146043D01*
X130762Y146205D01*
X130924Y146418D01*
X131027Y146665D01*
X131062Y146930D01*
X131027Y147195D01*
X130924Y147442D01*
X130762Y147655D01*
X130549Y147817D01*
X130302Y147920D01*
X130037Y147955D01*
D02*
G37*
G36*
X148260Y146350D02*
X147933Y146307D01*
X147628Y146180D01*
X147366Y145979D01*
X147165Y145717D01*
X147038Y145412D01*
X146995Y145085D01*
X147038Y144758D01*
X147165Y144453D01*
X147366Y144191D01*
X147628Y143990D01*
X147933Y143863D01*
X148260Y143820D01*
X148587Y143863D01*
X148892Y143990D01*
X149154Y144191D01*
X149355Y144453D01*
X149482Y144758D01*
X149525Y145085D01*
X149482Y145412D01*
X149355Y145717D01*
X149154Y145979D01*
X148892Y146180D01*
X148587Y146307D01*
X148260Y146350D01*
D02*
G37*
G36*
X138227Y144205D02*
X136703D01*
X136438Y144170D01*
X136191Y144067D01*
X135978Y143905D01*
X135816Y143692D01*
X135713Y143445D01*
X135678Y143180D01*
X135713Y142915D01*
X135816Y142668D01*
X135978Y142455D01*
X136191Y142293D01*
X136438Y142190D01*
X136703Y142155D01*
X138227D01*
X138492Y142190D01*
X138739Y142293D01*
X138952Y142455D01*
X139114Y142668D01*
X139217Y142915D01*
X139252Y143180D01*
X139217Y143445D01*
X139114Y143692D01*
X138952Y143905D01*
X138739Y144067D01*
X138492Y144170D01*
X138227Y144205D01*
D02*
G37*
G36*
X129972D02*
X128448D01*
X128183Y144170D01*
X127936Y144067D01*
X127723Y143905D01*
X127561Y143692D01*
X127458Y143445D01*
X127423Y143180D01*
X127458Y142915D01*
X127561Y142668D01*
X127723Y142455D01*
X127936Y142293D01*
X128183Y142190D01*
X128448Y142155D01*
X129972D01*
X130237Y142190D01*
X130484Y142293D01*
X130697Y142455D01*
X130859Y142668D01*
X130962Y142915D01*
X130997Y143180D01*
X130962Y143445D01*
X130859Y143692D01*
X130697Y143905D01*
X130484Y144067D01*
X130237Y144170D01*
X129972Y144205D01*
D02*
G37*
G36*
X151910Y148175D02*
X151645Y148140D01*
X151420Y148047D01*
X150400D01*
X150168Y148016D01*
X149952Y147927D01*
X149766Y147784D01*
X149623Y147598D01*
X149534Y147382D01*
X149503Y147150D01*
X149534Y146918D01*
X149623Y146702D01*
X149766Y146516D01*
X149952Y146373D01*
X150168Y146284D01*
X150400Y146253D01*
X151357D01*
X155278Y142333D01*
X155293Y142218D01*
X155420Y141913D01*
X155621Y141651D01*
X155883Y141450D01*
X156188Y141323D01*
X156515Y141280D01*
X156842Y141323D01*
X157147Y141450D01*
X157409Y141651D01*
X157610Y141913D01*
X157737Y142218D01*
X157780Y142545D01*
X157737Y142872D01*
X157610Y143177D01*
X157409Y143439D01*
X157147Y143640D01*
X156842Y143767D01*
X156727Y143782D01*
X152635Y147875D01*
X152422Y148037D01*
X152175Y148140D01*
X151910Y148175D01*
D02*
G37*
G36*
X143180Y143810D02*
X142853Y143767D01*
X142548Y143640D01*
X142286Y143439D01*
X142085Y143177D01*
X141958Y142872D01*
X141915Y142545D01*
X141958Y142218D01*
X142085Y141913D01*
X142286Y141651D01*
X142548Y141450D01*
X142853Y141323D01*
X143180Y141280D01*
X143507Y141323D01*
X143812Y141450D01*
X144074Y141651D01*
X144275Y141913D01*
X144402Y142218D01*
X144445Y142545D01*
X144402Y142872D01*
X144275Y143177D01*
X144074Y143439D01*
X143812Y143640D01*
X143507Y143767D01*
X143180Y143810D01*
D02*
G37*
G36*
X138227Y141665D02*
X137656D01*
Y140831D01*
X139227D01*
X139217Y140905D01*
X139114Y141152D01*
X138952Y141365D01*
X138739Y141527D01*
X138492Y141630D01*
X138227Y141665D01*
D02*
G37*
G36*
X129972D02*
X129400D01*
Y140831D01*
X130972D01*
X130962Y140905D01*
X130859Y141152D01*
X130697Y141365D01*
X130484Y141527D01*
X130237Y141630D01*
X129972Y141665D01*
D02*
G37*
G36*
X137275D02*
X136703D01*
X136438Y141630D01*
X136191Y141527D01*
X135978Y141365D01*
X135816Y141152D01*
X135713Y140905D01*
X135703Y140831D01*
X137275D01*
Y141665D01*
D02*
G37*
G36*
X129020D02*
X128448D01*
X128183Y141630D01*
X127936Y141527D01*
X127723Y141365D01*
X127561Y141152D01*
X127458Y140905D01*
X127448Y140831D01*
X129020D01*
Y141665D01*
D02*
G37*
G36*
X139227Y140450D02*
X137656D01*
Y139615D01*
X138227D01*
X138492Y139650D01*
X138739Y139753D01*
X138952Y139915D01*
X139114Y140128D01*
X139217Y140375D01*
X139227Y140450D01*
D02*
G37*
G36*
X137275D02*
X135703D01*
X135713Y140375D01*
X135816Y140128D01*
X135978Y139915D01*
X136191Y139753D01*
X136438Y139650D01*
X136703Y139615D01*
X137275D01*
Y140450D01*
D02*
G37*
G36*
X130972D02*
X129400D01*
Y139615D01*
X129972D01*
X130237Y139650D01*
X130484Y139753D01*
X130697Y139915D01*
X130859Y140128D01*
X130962Y140375D01*
X130972Y140450D01*
D02*
G37*
G36*
X129020D02*
X127448D01*
X127458Y140375D01*
X127561Y140128D01*
X127723Y139915D01*
X127936Y139753D01*
X128183Y139650D01*
X128448Y139615D01*
X129020D01*
Y140450D01*
D02*
G37*
G36*
X161595Y141270D02*
X161268Y141227D01*
X160963Y141100D01*
X160701Y140899D01*
X160500Y140637D01*
X160373Y140332D01*
X160330Y140005D01*
X160373Y139678D01*
X160500Y139373D01*
X160701Y139111D01*
X160963Y138910D01*
X161268Y138783D01*
X161595Y138740D01*
X161922Y138783D01*
X162227Y138910D01*
X162489Y139111D01*
X162690Y139373D01*
X162817Y139678D01*
X162860Y140005D01*
X162817Y140332D01*
X162690Y140637D01*
X162489Y140899D01*
X162227Y141100D01*
X161922Y141227D01*
X161595Y141270D01*
D02*
G37*
G36*
X148260D02*
X147933Y141227D01*
X147628Y141100D01*
X147366Y140899D01*
X147165Y140637D01*
X147038Y140332D01*
X146995Y140005D01*
X147038Y139678D01*
X147165Y139373D01*
X147366Y139111D01*
X147628Y138910D01*
X147933Y138783D01*
X148260Y138740D01*
X148587Y138783D01*
X148892Y138910D01*
X149154Y139111D01*
X149355Y139373D01*
X149482Y139678D01*
X149525Y140005D01*
X149482Y140332D01*
X149355Y140637D01*
X149154Y140899D01*
X148892Y141100D01*
X148587Y141227D01*
X148260Y141270D01*
D02*
G37*
G36*
X156515Y138730D02*
X156188Y138687D01*
X155883Y138560D01*
X155621Y138359D01*
X155420Y138097D01*
X155293Y137792D01*
X155250Y137465D01*
X155293Y137138D01*
X155420Y136833D01*
X155621Y136571D01*
X155883Y136370D01*
X156188Y136243D01*
X156515Y136200D01*
X156842Y136243D01*
X157147Y136370D01*
X157409Y136571D01*
X157610Y136833D01*
X157737Y137138D01*
X157780Y137465D01*
X157737Y137792D01*
X157610Y138097D01*
X157409Y138359D01*
X157147Y138560D01*
X156842Y138687D01*
X156515Y138730D01*
D02*
G37*
G36*
X138227Y137855D02*
X136703D01*
X136438Y137820D01*
X136191Y137717D01*
X135978Y137555D01*
X135816Y137342D01*
X135713Y137095D01*
X135678Y136830D01*
X135713Y136565D01*
X135816Y136318D01*
X135978Y136105D01*
X136191Y135943D01*
X136438Y135840D01*
X136703Y135805D01*
X138227D01*
X138492Y135840D01*
X138739Y135943D01*
X138952Y136105D01*
X139114Y136318D01*
X139217Y136565D01*
X139252Y136830D01*
X139217Y137095D01*
X139114Y137342D01*
X138952Y137555D01*
X138739Y137717D01*
X138492Y137820D01*
X138227Y137855D01*
D02*
G37*
G36*
X129972D02*
X128448D01*
X128183Y137820D01*
X127936Y137717D01*
X127723Y137555D01*
X127561Y137342D01*
X127458Y137095D01*
X127423Y136830D01*
X127458Y136565D01*
X127561Y136318D01*
X127723Y136105D01*
X127936Y135943D01*
X128183Y135840D01*
X128448Y135805D01*
X129972D01*
X130237Y135840D01*
X130484Y135943D01*
X130697Y136105D01*
X130859Y136318D01*
X130962Y136565D01*
X130997Y136830D01*
X130962Y137095D01*
X130859Y137342D01*
X130697Y137555D01*
X130484Y137717D01*
X130237Y137820D01*
X129972Y137855D01*
D02*
G37*
G36*
X138227Y135315D02*
X137656D01*
Y134481D01*
X139227D01*
X139217Y134555D01*
X139114Y134802D01*
X138952Y135015D01*
X138739Y135177D01*
X138492Y135280D01*
X138227Y135315D01*
D02*
G37*
G36*
X129972D02*
X129400D01*
Y134481D01*
X130972D01*
X130962Y134555D01*
X130859Y134802D01*
X130697Y135015D01*
X130484Y135177D01*
X130237Y135280D01*
X129972Y135315D01*
D02*
G37*
G36*
X137275D02*
X136703D01*
X136438Y135280D01*
X136191Y135177D01*
X135978Y135015D01*
X135816Y134802D01*
X135713Y134555D01*
X135703Y134481D01*
X137275D01*
Y135315D01*
D02*
G37*
G36*
X129020D02*
X128448D01*
X128183Y135280D01*
X127936Y135177D01*
X127723Y135015D01*
X127561Y134802D01*
X127458Y134555D01*
X127448Y134481D01*
X129020D01*
Y135315D01*
D02*
G37*
G36*
X159630Y134285D02*
X159303Y134242D01*
X158998Y134115D01*
X158736Y133914D01*
X158535Y133652D01*
X158449Y133445D01*
X158311D01*
X158225Y133652D01*
X158024Y133914D01*
X157762Y134115D01*
X157457Y134242D01*
X157130Y134285D01*
X156803Y134242D01*
X156498Y134115D01*
X156236Y133914D01*
X156035Y133652D01*
X155949Y133445D01*
X155811D01*
X155725Y133652D01*
X155524Y133914D01*
X155262Y134115D01*
X154957Y134242D01*
X154820Y134260D01*
Y133020D01*
Y131780D01*
X154957Y131798D01*
X155262Y131925D01*
X155524Y132126D01*
X155725Y132388D01*
X155811Y132595D01*
X155949D01*
X156035Y132388D01*
X156236Y132126D01*
X156498Y131925D01*
X156803Y131798D01*
X157130Y131755D01*
X157457Y131798D01*
X157762Y131925D01*
X158024Y132126D01*
X158225Y132388D01*
X158311Y132595D01*
X158449D01*
X158535Y132388D01*
X158736Y132126D01*
X158998Y131925D01*
X159303Y131798D01*
X159630Y131755D01*
X159957Y131798D01*
X160262Y131925D01*
X160524Y132126D01*
X160725Y132388D01*
X160852Y132693D01*
X160895Y133020D01*
X160852Y133347D01*
X160725Y133652D01*
X160524Y133914D01*
X160262Y134115D01*
X159957Y134242D01*
X159630Y134285D01*
D02*
G37*
G36*
X139227Y134100D02*
X137656D01*
Y133265D01*
X138227D01*
X138492Y133300D01*
X138739Y133403D01*
X138952Y133565D01*
X139114Y133778D01*
X139217Y134025D01*
X139227Y134100D01*
D02*
G37*
G36*
X137275D02*
X135703D01*
X135713Y134025D01*
X135816Y133778D01*
X135978Y133565D01*
X136191Y133403D01*
X136438Y133300D01*
X136703Y133265D01*
X137275D01*
Y134100D01*
D02*
G37*
G36*
X130972D02*
X129400D01*
Y133265D01*
X129972D01*
X130237Y133300D01*
X130484Y133403D01*
X130697Y133565D01*
X130859Y133778D01*
X130962Y134025D01*
X130972Y134100D01*
D02*
G37*
G36*
X129020D02*
X127448D01*
X127458Y134025D01*
X127561Y133778D01*
X127723Y133565D01*
X127936Y133403D01*
X128183Y133300D01*
X128448Y133265D01*
X129020D01*
Y134100D01*
D02*
G37*
G36*
X152130Y138675D02*
X151865Y138640D01*
X151618Y138537D01*
X151405Y138375D01*
X151243Y138162D01*
X151140Y137915D01*
X151105Y137650D01*
Y137352D01*
X151092Y137287D01*
X151105Y137222D01*
Y133744D01*
X151035Y133652D01*
X150908Y133347D01*
X150865Y133020D01*
X150908Y132693D01*
X151035Y132388D01*
X151236Y132126D01*
X151498Y131925D01*
X151803Y131798D01*
X152130Y131755D01*
X152457Y131798D01*
X152762Y131925D01*
X153024Y132126D01*
X153225Y132388D01*
X153311Y132595D01*
X153449D01*
X153535Y132388D01*
X153736Y132126D01*
X153998Y131925D01*
X154303Y131798D01*
X154439Y131780D01*
Y133020D01*
Y134260D01*
X154303Y134242D01*
X153998Y134115D01*
X153736Y133914D01*
X153535Y133652D01*
X153449Y133445D01*
X153311D01*
X153225Y133652D01*
X153155Y133744D01*
Y137187D01*
X153175Y137287D01*
X153155Y137387D01*
Y137650D01*
X153120Y137915D01*
X153017Y138162D01*
X152855Y138375D01*
X152642Y138537D01*
X152395Y138640D01*
X152130Y138675D01*
D02*
G37*
G36*
X138227Y131505D02*
X136703D01*
X136438Y131470D01*
X136191Y131367D01*
X135978Y131205D01*
X135816Y130992D01*
X135713Y130745D01*
X135678Y130480D01*
X135713Y130215D01*
X135816Y129968D01*
X135978Y129755D01*
X136191Y129593D01*
X136438Y129490D01*
X136703Y129455D01*
X138227D01*
X138492Y129490D01*
X138739Y129593D01*
X138952Y129755D01*
X139114Y129968D01*
X139217Y130215D01*
X139252Y130480D01*
X139217Y130745D01*
X139114Y130992D01*
X138952Y131205D01*
X138739Y131367D01*
X138492Y131470D01*
X138227Y131505D01*
D02*
G37*
G36*
X129091Y130744D02*
Y129191D01*
X130644D01*
X130629Y129344D01*
X130528Y129674D01*
X130365Y129979D01*
X130146Y130246D01*
X129879Y130465D01*
X129574Y130628D01*
X129244Y130729D01*
X129091Y130744D01*
D02*
G37*
G36*
X128710D02*
X128556Y130729D01*
X128226Y130628D01*
X127921Y130465D01*
X127654Y130246D01*
X127435Y129979D01*
X127272Y129674D01*
X127171Y129344D01*
X127156Y129191D01*
X128710D01*
Y130744D01*
D02*
G37*
G36*
X138227Y128965D02*
X137656D01*
Y128131D01*
X139227D01*
X139217Y128205D01*
X139114Y128452D01*
X138952Y128665D01*
X138739Y128827D01*
X138492Y128930D01*
X138227Y128965D01*
D02*
G37*
G36*
X137275D02*
X136703D01*
X136438Y128930D01*
X136191Y128827D01*
X135978Y128665D01*
X135816Y128452D01*
X135713Y128205D01*
X135703Y128131D01*
X137275D01*
Y128965D01*
D02*
G37*
G36*
X130644Y128809D02*
X129091D01*
Y127256D01*
X129244Y127271D01*
X129574Y127372D01*
X129879Y127535D01*
X130146Y127754D01*
X130365Y128021D01*
X130528Y128326D01*
X130629Y128656D01*
X130644Y128809D01*
D02*
G37*
G36*
X128710D02*
X127156D01*
X127171Y128656D01*
X127272Y128326D01*
X127435Y128021D01*
X127654Y127754D01*
X127921Y127535D01*
X128226Y127372D01*
X128556Y127271D01*
X128710Y127256D01*
Y128809D01*
D02*
G37*
G36*
X139227Y127750D02*
X137656D01*
Y126915D01*
X138227D01*
X138492Y126950D01*
X138739Y127053D01*
X138952Y127215D01*
X139114Y127428D01*
X139217Y127675D01*
X139227Y127750D01*
D02*
G37*
G36*
X137275D02*
X135703D01*
X135713Y127675D01*
X135816Y127428D01*
X135978Y127215D01*
X136191Y127053D01*
X136438Y126950D01*
X136703Y126915D01*
X137275D01*
Y127750D01*
D02*
G37*
%LPD*%
D18*
X152130Y133020D02*
Y137650D01*
X151910Y147150D02*
X156515Y142545D01*
D19*
X152603Y155524D02*
X153213Y156134D01*
X150902Y155524D02*
X152603D01*
X150165Y154788D02*
X150902Y155524D01*
X142113Y159055D02*
X142545Y158623D01*
X140970Y159055D02*
X142113D01*
X140564Y159461D02*
X140970Y159055D01*
X156109Y152807D02*
X157023Y153721D01*
X156109Y151791D02*
Y152807D01*
X155245Y150927D02*
X156109Y151791D01*
X157848Y148805D02*
X158686D01*
X156286Y147244D02*
X157848Y148805D01*
X158686D02*
X160096Y150216D01*
X133858Y165176D02*
X136805Y162230D01*
X137465D01*
X131648Y164567D02*
X135916Y160300D01*
X142266Y146888D02*
X147269D01*
D22*
X150400Y147150D02*
X151150D01*
X151910D01*
X154630Y130714D02*
Y133020D01*
Y135224D01*
D31*
X158400Y161860D02*
D03*
X155860Y166940D02*
D03*
X160940D02*
D03*
X143180Y142545D02*
D03*
X148260Y145085D02*
D03*
Y140005D02*
D03*
X152130Y133020D02*
D03*
X154630D02*
D03*
X157130D02*
D03*
X159630D02*
D03*
X161595Y140005D02*
D03*
X156515Y137465D02*
D03*
Y142545D02*
D03*
D32*
Y158420D02*
D03*
X159055D02*
D03*
X161595D02*
D03*
X128900Y129000D02*
D03*
Y159000D02*
D03*
D33*
X137465Y140640D02*
D03*
Y143180D02*
D03*
Y134290D02*
D03*
Y136830D02*
D03*
Y127940D02*
D03*
Y130480D02*
D03*
X129210Y134290D02*
D03*
Y136830D02*
D03*
Y140640D02*
D03*
Y143180D02*
D03*
X129275Y149470D02*
D03*
Y146930D02*
D03*
Y152010D02*
D03*
X137465Y146990D02*
D03*
Y149530D02*
D03*
Y155880D02*
D03*
Y153340D02*
D03*
Y158420D02*
D03*
Y164770D02*
D03*
Y162230D02*
D03*
Y167310D02*
D03*
X129210Y164770D02*
D03*
Y167310D02*
D03*
D34*
X155245Y150927D02*
D03*
X157023Y153721D02*
D03*
X144780Y163170D02*
D03*
X156900Y145325D02*
D03*
X153950Y148082D02*
D03*
X145000Y160300D02*
D03*
X148175Y166750D02*
D03*
X141504Y162230D02*
D03*
X162525Y155325D02*
D03*
X162700Y141625D02*
D03*
X159250Y160150D02*
D03*
X161825Y126950D02*
D03*
X155524Y168555D02*
D03*
X159106Y167716D02*
D03*
X126264Y136957D02*
D03*
X158775Y139725D02*
D03*
X142139Y145415D02*
D03*
X141325Y165050D02*
D03*
X160096Y150216D02*
D03*
X152527Y137287D02*
D03*
X152121Y137973D02*
D03*
X151740Y137287D02*
D03*
X153213Y156134D02*
D03*
X142545Y158623D02*
D03*
X151359Y149784D02*
D03*
X151029Y148463D02*
D03*
X156286Y147244D02*
D03*
X150400Y147150D02*
D03*
X151150D02*
D03*
X144650Y154150D02*
D03*
X149900Y157400D02*
D03*
X142900Y133400D02*
D03*
X140650Y134900D02*
D03*
X142900Y136400D02*
D03*
Y130150D02*
D03*
X140650Y128650D02*
D03*
X142900Y126900D02*
D03*
X146900Y167900D02*
D03*
X143900Y159150D02*
D03*
X159650Y143900D02*
D03*
X147900Y153150D02*
D03*
X144650Y153400D02*
D03*
X142150Y150150D02*
D03*
X141400Y157150D02*
D03*
X139400Y154650D02*
D03*
X135814Y151105D02*
D03*
X150150Y131900D02*
D03*
X144400D02*
D03*
X153900Y136900D02*
D03*
X150150D02*
D03*
X152650Y141650D02*
D03*
X144900Y145650D02*
D03*
X145339Y140056D02*
D03*
X161900Y165400D02*
D03*
X153400Y163150D02*
D03*
X153150Y166900D02*
D03*
X149150Y163400D02*
D03*
X145150Y168400D02*
D03*
X133150Y168650D02*
D03*
X131900Y167150D02*
D03*
X141377Y167031D02*
D03*
X150775Y153543D02*
D03*
X147828Y157277D02*
D03*
X126518Y168301D02*
D03*
X159893Y156109D02*
D03*
X156896Y156083D02*
D03*
X155067Y154331D02*
D03*
X161214Y135585D02*
D03*
X157531D02*
D03*
X152984Y127026D02*
D03*
X148870Y142240D02*
D03*
X141529Y141935D02*
D03*
X135916Y160300D02*
D03*
X133858Y165176D02*
D03*
X131648Y164567D02*
D03*
X147900Y153900D02*
D03*
X150165Y154788D02*
D03*
X153680Y155164D02*
D03*
X140564Y159461D02*
D03*
X147269Y146888D02*
D03*
X142266D02*
D03*
X144145Y149987D02*
D03*
X139497Y161316D02*
D03*
X158445Y131039D02*
D03*
X160046Y145618D02*
D03*
X145212Y159334D02*
D03*
D35*
X128887Y158850D02*
D03*
D36*
X128975Y128575D02*
D03*
M02*
