G04 Layer_Color=2752767*
%FSLAX43Y43*%
%MOMM*%
G71*
G01*
G75*
%ADD53C,0.051*%
%ADD54C,0.068*%
D53*
X158197Y161657D02*
Y162063D01*
X158603D01*
Y161657D01*
X158197D01*
X155657Y166737D02*
Y167143D01*
X156063D01*
Y166737D01*
X155657D01*
X160737D02*
Y167143D01*
X161143D01*
Y166737D01*
X160737D01*
X142977Y142342D02*
Y142748D01*
X143383D01*
Y142342D01*
X142977D01*
X148057Y144882D02*
Y145288D01*
X148463D01*
Y144882D01*
X148057D01*
Y139802D02*
Y140208D01*
X148463D01*
Y139802D01*
X148057D01*
X151927Y132817D02*
Y133223D01*
X152333D01*
Y132817D01*
X151927D01*
X154427D02*
Y133223D01*
X154833D01*
Y132817D01*
X154427D01*
X156927D02*
Y133223D01*
X157333D01*
Y132817D01*
X156927D01*
X159427D02*
Y133223D01*
X159833D01*
Y132817D01*
X159427D01*
X161392Y139802D02*
Y140208D01*
X161798D01*
Y139802D01*
X161392D01*
X156312Y137262D02*
Y137668D01*
X156718D01*
Y137262D01*
X156312D01*
Y142342D02*
Y142748D01*
X156718D01*
Y142342D01*
X156312D01*
X137465Y140437D02*
X137262Y140843D01*
X137668D01*
X137465Y140437D01*
Y142977D02*
X137262Y143383D01*
X137668D01*
X137465Y142977D01*
Y134087D02*
X137262Y134493D01*
X137668D01*
X137465Y134087D01*
Y136627D02*
X137262Y137033D01*
X137668D01*
X137465Y136627D01*
Y127737D02*
X137262Y128143D01*
X137668D01*
X137465Y127737D01*
Y130277D02*
X137262Y130683D01*
X137668D01*
X137465Y130277D01*
X129210Y134087D02*
X129007Y134493D01*
X129413D01*
X129210Y134087D01*
Y136627D02*
X129007Y137033D01*
X129413D01*
X129210Y136627D01*
Y140437D02*
X129007Y140843D01*
X129413D01*
X129210Y140437D01*
Y142977D02*
X129007Y143383D01*
X129413D01*
X129210Y142977D01*
X129275Y149267D02*
X129072Y149673D01*
X129478D01*
X129275Y149267D01*
Y146727D02*
X129072Y147133D01*
X129478D01*
X129275Y146727D01*
Y151807D02*
X129072Y152213D01*
X129478D01*
X129275Y151807D01*
X137465Y146787D02*
X137262Y147193D01*
X137668D01*
X137465Y146787D01*
Y149327D02*
X137262Y149733D01*
X137668D01*
X137465Y149327D01*
Y155677D02*
X137262Y156083D01*
X137668D01*
X137465Y155677D01*
Y153137D02*
X137262Y153543D01*
X137668D01*
X137465Y153137D01*
Y158217D02*
X137262Y158623D01*
X137668D01*
X137465Y158217D01*
Y164567D02*
X137262Y164973D01*
X137668D01*
X137465Y164567D01*
Y162027D02*
X137262Y162433D01*
X137668D01*
X137465Y162027D01*
Y167107D02*
X137262Y167513D01*
X137668D01*
X137465Y167107D01*
X129210Y164567D02*
X129007Y164973D01*
X129413D01*
X129210Y164567D01*
Y167107D02*
X129007Y167513D01*
X129413D01*
X129210Y167107D01*
X128900Y128797D02*
X129002Y128898D01*
X129103D01*
X129002Y129000D01*
X129103Y129102D01*
X129002D01*
X128900Y129203D01*
X128798Y129102D01*
X128697D01*
X128798Y129000D01*
X128697Y128898D01*
X128798D01*
X128900Y128797D01*
Y158797D02*
X129002Y158898D01*
X129103D01*
X129002Y159000D01*
X129103Y159102D01*
X129002D01*
X128900Y159203D01*
X128798Y159102D01*
X128697D01*
X128798Y159000D01*
X128697Y158898D01*
X128798D01*
X128900Y158797D01*
X155042Y150724D02*
X155143Y150927D01*
X155042Y151130D01*
X155245Y151029D01*
X155448Y151130D01*
X155347Y150927D01*
X155448Y150724D01*
X155245Y150825D01*
X155042Y150724D01*
X156820Y153518D02*
X156921Y153721D01*
X156820Y153924D01*
X157023Y153823D01*
X157226Y153924D01*
X157125Y153721D01*
X157226Y153518D01*
X157023Y153619D01*
X156820Y153518D01*
X144577Y162967D02*
X144679Y163170D01*
X144577Y163373D01*
X144780Y163271D01*
X144983Y163373D01*
X144882Y163170D01*
X144983Y162967D01*
X144780Y163068D01*
X144577Y162967D01*
X156697Y145122D02*
X156798Y145325D01*
X156697Y145528D01*
X156900Y145427D01*
X157103Y145528D01*
X157002Y145325D01*
X157103Y145122D01*
X156900Y145223D01*
X156697Y145122D01*
X153746Y147879D02*
X153848Y148082D01*
X153746Y148285D01*
X153950Y148184D01*
X154153Y148285D01*
X154051Y148082D01*
X154153Y147879D01*
X153950Y147981D01*
X153746Y147879D01*
X144797Y160097D02*
X144898Y160300D01*
X144797Y160503D01*
X145000Y160402D01*
X145203Y160503D01*
X145102Y160300D01*
X145203Y160097D01*
X145000Y160198D01*
X144797Y160097D01*
X147972Y166547D02*
X148073Y166750D01*
X147972Y166953D01*
X148175Y166852D01*
X148378Y166953D01*
X148277Y166750D01*
X148378Y166547D01*
X148175Y166648D01*
X147972Y166547D01*
X141300Y162027D02*
X141402Y162230D01*
X141300Y162433D01*
X141504Y162332D01*
X141707Y162433D01*
X141605Y162230D01*
X141707Y162027D01*
X141504Y162128D01*
X141300Y162027D01*
X162322Y155122D02*
X162423Y155325D01*
X162322Y155528D01*
X162525Y155427D01*
X162728Y155528D01*
X162627Y155325D01*
X162728Y155122D01*
X162525Y155223D01*
X162322Y155122D01*
X162497Y141422D02*
X162598Y141625D01*
X162497Y141828D01*
X162700Y141727D01*
X162903Y141828D01*
X162802Y141625D01*
X162903Y141422D01*
X162700Y141523D01*
X162497Y141422D01*
X159047Y159947D02*
X159148Y160150D01*
X159047Y160353D01*
X159250Y160252D01*
X159453Y160353D01*
X159352Y160150D01*
X159453Y159947D01*
X159250Y160048D01*
X159047Y159947D01*
X161622Y126747D02*
X161723Y126950D01*
X161622Y127153D01*
X161825Y127052D01*
X162028Y127153D01*
X161927Y126950D01*
X162028Y126747D01*
X161825Y126848D01*
X161622Y126747D01*
X155321Y168351D02*
X155423Y168555D01*
X155321Y168758D01*
X155524Y168656D01*
X155728Y168758D01*
X155626Y168555D01*
X155728Y168351D01*
X155524Y168453D01*
X155321Y168351D01*
X158903Y167513D02*
X159004Y167716D01*
X158903Y167920D01*
X159106Y167818D01*
X159309Y167920D01*
X159207Y167716D01*
X159309Y167513D01*
X159106Y167615D01*
X158903Y167513D01*
X126060Y136754D02*
X126162Y136957D01*
X126060Y137160D01*
X126264Y137059D01*
X126467Y137160D01*
X126365Y136957D01*
X126467Y136754D01*
X126264Y136855D01*
X126060Y136754D01*
X158572Y139522D02*
X158673Y139725D01*
X158572Y139928D01*
X158775Y139827D01*
X158978Y139928D01*
X158877Y139725D01*
X158978Y139522D01*
X158775Y139623D01*
X158572Y139522D01*
X141935Y145212D02*
X142037Y145415D01*
X141935Y145618D01*
X142139Y145517D01*
X142342Y145618D01*
X142240Y145415D01*
X142342Y145212D01*
X142139Y145314D01*
X141935Y145212D01*
X141122Y164847D02*
X141223Y165050D01*
X141122Y165253D01*
X141325Y165152D01*
X141528Y165253D01*
X141427Y165050D01*
X141528Y164847D01*
X141325Y164948D01*
X141122Y164847D01*
X159893Y150013D02*
X159995Y150216D01*
X159893Y150419D01*
X160096Y150317D01*
X160300Y150419D01*
X160198Y150216D01*
X160300Y150013D01*
X160096Y150114D01*
X159893Y150013D01*
X152324Y137084D02*
X152426Y137287D01*
X152324Y137490D01*
X152527Y137389D01*
X152730Y137490D01*
X152629Y137287D01*
X152730Y137084D01*
X152527Y137186D01*
X152324Y137084D01*
X151918Y137770D02*
X152019Y137973D01*
X151918Y138176D01*
X152121Y138075D01*
X152324Y138176D01*
X152222Y137973D01*
X152324Y137770D01*
X152121Y137871D01*
X151918Y137770D01*
X151537Y137084D02*
X151638Y137287D01*
X151537Y137490D01*
X151740Y137389D01*
X151943Y137490D01*
X151841Y137287D01*
X151943Y137084D01*
X151740Y137186D01*
X151537Y137084D01*
X153010Y155931D02*
X153111Y156134D01*
X153010Y156337D01*
X153213Y156236D01*
X153416Y156337D01*
X153315Y156134D01*
X153416Y155931D01*
X153213Y156032D01*
X153010Y155931D01*
X142342Y158420D02*
X142443Y158623D01*
X142342Y158826D01*
X142545Y158725D01*
X142748Y158826D01*
X142647Y158623D01*
X142748Y158420D01*
X142545Y158522D01*
X142342Y158420D01*
X151156Y149581D02*
X151257Y149784D01*
X151156Y149987D01*
X151359Y149886D01*
X151562Y149987D01*
X151460Y149784D01*
X151562Y149581D01*
X151359Y149682D01*
X151156Y149581D01*
X150825Y148260D02*
X150927Y148463D01*
X150825Y148666D01*
X151029Y148565D01*
X151232Y148666D01*
X151130Y148463D01*
X151232Y148260D01*
X151029Y148362D01*
X150825Y148260D01*
X156083Y147041D02*
X156185Y147244D01*
X156083Y147447D01*
X156286Y147346D01*
X156490Y147447D01*
X156388Y147244D01*
X156490Y147041D01*
X156286Y147142D01*
X156083Y147041D01*
X150197Y146947D02*
X150298Y147150D01*
X150197Y147353D01*
X150400Y147252D01*
X150603Y147353D01*
X150502Y147150D01*
X150603Y146947D01*
X150400Y147048D01*
X150197Y146947D01*
X150947D02*
X151048Y147150D01*
X150947Y147353D01*
X151150Y147252D01*
X151353Y147353D01*
X151252Y147150D01*
X151353Y146947D01*
X151150Y147048D01*
X150947Y146947D01*
X144447Y153947D02*
X144548Y154150D01*
X144447Y154353D01*
X144650Y154252D01*
X144853Y154353D01*
X144752Y154150D01*
X144853Y153947D01*
X144650Y154048D01*
X144447Y153947D01*
X149697Y157197D02*
X149798Y157400D01*
X149697Y157603D01*
X149900Y157502D01*
X150103Y157603D01*
X150002Y157400D01*
X150103Y157197D01*
X149900Y157298D01*
X149697Y157197D01*
X142697Y133197D02*
X142798Y133400D01*
X142697Y133603D01*
X142900Y133502D01*
X143103Y133603D01*
X143002Y133400D01*
X143103Y133197D01*
X142900Y133298D01*
X142697Y133197D01*
X140447Y134697D02*
X140548Y134900D01*
X140447Y135103D01*
X140650Y135002D01*
X140853Y135103D01*
X140752Y134900D01*
X140853Y134697D01*
X140650Y134798D01*
X140447Y134697D01*
X142697Y136197D02*
X142798Y136400D01*
X142697Y136603D01*
X142900Y136502D01*
X143103Y136603D01*
X143002Y136400D01*
X143103Y136197D01*
X142900Y136298D01*
X142697Y136197D01*
Y129947D02*
X142798Y130150D01*
X142697Y130353D01*
X142900Y130252D01*
X143103Y130353D01*
X143002Y130150D01*
X143103Y129947D01*
X142900Y130048D01*
X142697Y129947D01*
X140447Y128447D02*
X140548Y128650D01*
X140447Y128853D01*
X140650Y128752D01*
X140853Y128853D01*
X140752Y128650D01*
X140853Y128447D01*
X140650Y128548D01*
X140447Y128447D01*
X142697Y126697D02*
X142798Y126900D01*
X142697Y127103D01*
X142900Y127002D01*
X143103Y127103D01*
X143002Y126900D01*
X143103Y126697D01*
X142900Y126798D01*
X142697Y126697D01*
X146697Y167697D02*
X146798Y167900D01*
X146697Y168103D01*
X146900Y168002D01*
X147103Y168103D01*
X147002Y167900D01*
X147103Y167697D01*
X146900Y167798D01*
X146697Y167697D01*
X143697Y158947D02*
X143798Y159150D01*
X143697Y159353D01*
X143900Y159252D01*
X144103Y159353D01*
X144002Y159150D01*
X144103Y158947D01*
X143900Y159048D01*
X143697Y158947D01*
X159447Y143697D02*
X159548Y143900D01*
X159447Y144103D01*
X159650Y144002D01*
X159853Y144103D01*
X159752Y143900D01*
X159853Y143697D01*
X159650Y143798D01*
X159447Y143697D01*
X147697Y152947D02*
X147798Y153150D01*
X147697Y153353D01*
X147900Y153252D01*
X148103Y153353D01*
X148002Y153150D01*
X148103Y152947D01*
X147900Y153048D01*
X147697Y152947D01*
X144447Y153197D02*
X144548Y153400D01*
X144447Y153603D01*
X144650Y153502D01*
X144853Y153603D01*
X144752Y153400D01*
X144853Y153197D01*
X144650Y153298D01*
X144447Y153197D01*
X141947Y149947D02*
X142048Y150150D01*
X141947Y150353D01*
X142150Y150252D01*
X142353Y150353D01*
X142252Y150150D01*
X142353Y149947D01*
X142150Y150048D01*
X141947Y149947D01*
X141197Y156947D02*
X141298Y157150D01*
X141197Y157353D01*
X141400Y157252D01*
X141603Y157353D01*
X141502Y157150D01*
X141603Y156947D01*
X141400Y157048D01*
X141197Y156947D01*
X139197Y154447D02*
X139298Y154650D01*
X139197Y154853D01*
X139400Y154752D01*
X139603Y154853D01*
X139502Y154650D01*
X139603Y154447D01*
X139400Y154548D01*
X139197Y154447D01*
X135611Y150902D02*
X135712Y151105D01*
X135611Y151308D01*
X135814Y151206D01*
X136017Y151308D01*
X135916Y151105D01*
X136017Y150902D01*
X135814Y151003D01*
X135611Y150902D01*
X149947Y131697D02*
X150048Y131900D01*
X149947Y132103D01*
X150150Y132002D01*
X150353Y132103D01*
X150252Y131900D01*
X150353Y131697D01*
X150150Y131798D01*
X149947Y131697D01*
X144197D02*
X144298Y131900D01*
X144197Y132103D01*
X144400Y132002D01*
X144603Y132103D01*
X144502Y131900D01*
X144603Y131697D01*
X144400Y131798D01*
X144197Y131697D01*
X153697Y136697D02*
X153798Y136900D01*
X153697Y137103D01*
X153900Y137002D01*
X154103Y137103D01*
X154002Y136900D01*
X154103Y136697D01*
X153900Y136798D01*
X153697Y136697D01*
X149947D02*
X150048Y136900D01*
X149947Y137103D01*
X150150Y137002D01*
X150353Y137103D01*
X150252Y136900D01*
X150353Y136697D01*
X150150Y136798D01*
X149947Y136697D01*
X152447Y141447D02*
X152548Y141650D01*
X152447Y141853D01*
X152650Y141752D01*
X152853Y141853D01*
X152752Y141650D01*
X152853Y141447D01*
X152650Y141548D01*
X152447Y141447D01*
X144697Y145447D02*
X144798Y145650D01*
X144697Y145853D01*
X144900Y145752D01*
X145103Y145853D01*
X145002Y145650D01*
X145103Y145447D01*
X144900Y145548D01*
X144697Y145447D01*
X145136Y139853D02*
X145237Y140056D01*
X145136Y140259D01*
X145339Y140157D01*
X145542Y140259D01*
X145441Y140056D01*
X145542Y139853D01*
X145339Y139954D01*
X145136Y139853D01*
X161697Y165197D02*
X161798Y165400D01*
X161697Y165603D01*
X161900Y165502D01*
X162103Y165603D01*
X162002Y165400D01*
X162103Y165197D01*
X161900Y165298D01*
X161697Y165197D01*
X153197Y162947D02*
X153298Y163150D01*
X153197Y163353D01*
X153400Y163252D01*
X153603Y163353D01*
X153502Y163150D01*
X153603Y162947D01*
X153400Y163048D01*
X153197Y162947D01*
X152947Y166697D02*
X153048Y166900D01*
X152947Y167103D01*
X153150Y167002D01*
X153353Y167103D01*
X153252Y166900D01*
X153353Y166697D01*
X153150Y166798D01*
X152947Y166697D01*
X148947Y163197D02*
X149048Y163400D01*
X148947Y163603D01*
X149150Y163502D01*
X149353Y163603D01*
X149252Y163400D01*
X149353Y163197D01*
X149150Y163298D01*
X148947Y163197D01*
X144947Y168197D02*
X145048Y168400D01*
X144947Y168603D01*
X145150Y168502D01*
X145353Y168603D01*
X145252Y168400D01*
X145353Y168197D01*
X145150Y168298D01*
X144947Y168197D01*
X132947Y168447D02*
X133048Y168650D01*
X132947Y168853D01*
X133150Y168752D01*
X133353Y168853D01*
X133252Y168650D01*
X133353Y168447D01*
X133150Y168548D01*
X132947Y168447D01*
X131697Y166947D02*
X131798Y167150D01*
X131697Y167353D01*
X131900Y167252D01*
X132103Y167353D01*
X132002Y167150D01*
X132103Y166947D01*
X131900Y167048D01*
X131697Y166947D01*
X141173Y166827D02*
X141275Y167031D01*
X141173Y167234D01*
X141377Y167132D01*
X141580Y167234D01*
X141478Y167031D01*
X141580Y166827D01*
X141377Y166929D01*
X141173Y166827D01*
X150571Y153340D02*
X150673Y153543D01*
X150571Y153746D01*
X150775Y153645D01*
X150978Y153746D01*
X150876Y153543D01*
X150978Y153340D01*
X150775Y153442D01*
X150571Y153340D01*
X147625Y157074D02*
X147727Y157277D01*
X147625Y157480D01*
X147828Y157379D01*
X148031Y157480D01*
X147930Y157277D01*
X148031Y157074D01*
X147828Y157175D01*
X147625Y157074D01*
X126314Y168097D02*
X126416Y168301D01*
X126314Y168504D01*
X126518Y168402D01*
X126721Y168504D01*
X126619Y168301D01*
X126721Y168097D01*
X126518Y168199D01*
X126314Y168097D01*
X159690Y155905D02*
X159792Y156109D01*
X159690Y156312D01*
X159893Y156210D01*
X160096Y156312D01*
X159995Y156109D01*
X160096Y155905D01*
X159893Y156007D01*
X159690Y155905D01*
X156693Y155880D02*
X156794Y156083D01*
X156693Y156286D01*
X156896Y156185D01*
X157099Y156286D01*
X156998Y156083D01*
X157099Y155880D01*
X156896Y155982D01*
X156693Y155880D01*
X154864Y154127D02*
X154966Y154331D01*
X154864Y154534D01*
X155067Y154432D01*
X155270Y154534D01*
X155169Y154331D01*
X155270Y154127D01*
X155067Y154229D01*
X154864Y154127D01*
X161011Y135382D02*
X161112Y135585D01*
X161011Y135789D01*
X161214Y135687D01*
X161417Y135789D01*
X161316Y135585D01*
X161417Y135382D01*
X161214Y135484D01*
X161011Y135382D01*
X157328D02*
X157429Y135585D01*
X157328Y135789D01*
X157531Y135687D01*
X157734Y135789D01*
X157633Y135585D01*
X157734Y135382D01*
X157531Y135484D01*
X157328Y135382D01*
X152781Y126822D02*
X152883Y127026D01*
X152781Y127229D01*
X152984Y127127D01*
X153188Y127229D01*
X153086Y127026D01*
X153188Y126822D01*
X152984Y126924D01*
X152781Y126822D01*
X148666Y142037D02*
X148768Y142240D01*
X148666Y142443D01*
X148870Y142342D01*
X149073Y142443D01*
X148971Y142240D01*
X149073Y142037D01*
X148870Y142139D01*
X148666Y142037D01*
X141326Y141732D02*
X141427Y141935D01*
X141326Y142139D01*
X141529Y142037D01*
X141732Y142139D01*
X141631Y141935D01*
X141732Y141732D01*
X141529Y141834D01*
X141326Y141732D01*
X135712Y160096D02*
X135814Y160300D01*
X135712Y160503D01*
X135916Y160401D01*
X136119Y160503D01*
X136017Y160300D01*
X136119Y160096D01*
X135916Y160198D01*
X135712Y160096D01*
X133655Y164973D02*
X133757Y165176D01*
X133655Y165380D01*
X133858Y165278D01*
X134061Y165380D01*
X133960Y165176D01*
X134061Y164973D01*
X133858Y165075D01*
X133655Y164973D01*
X131445Y164364D02*
X131547Y164567D01*
X131445Y164770D01*
X131648Y164668D01*
X131852Y164770D01*
X131750Y164567D01*
X131852Y164364D01*
X131648Y164465D01*
X131445Y164364D01*
X147697Y153697D02*
X147798Y153900D01*
X147697Y154103D01*
X147900Y154002D01*
X148103Y154103D01*
X148002Y153900D01*
X148103Y153697D01*
X147900Y153798D01*
X147697Y153697D01*
X149962Y154585D02*
X150063Y154788D01*
X149962Y154991D01*
X150165Y154889D01*
X150368Y154991D01*
X150267Y154788D01*
X150368Y154585D01*
X150165Y154686D01*
X149962Y154585D01*
X153477Y154961D02*
X153578Y155164D01*
X153477Y155367D01*
X153680Y155266D01*
X153883Y155367D01*
X153781Y155164D01*
X153883Y154961D01*
X153680Y155062D01*
X153477Y154961D01*
X140361Y159258D02*
X140462Y159461D01*
X140361Y159665D01*
X140564Y159563D01*
X140767Y159665D01*
X140665Y159461D01*
X140767Y159258D01*
X140564Y159360D01*
X140361Y159258D01*
X147066Y146685D02*
X147168Y146888D01*
X147066Y147092D01*
X147269Y146990D01*
X147473Y147092D01*
X147371Y146888D01*
X147473Y146685D01*
X147269Y146787D01*
X147066Y146685D01*
X142062D02*
X142164Y146888D01*
X142062Y147092D01*
X142266Y146990D01*
X142469Y147092D01*
X142367Y146888D01*
X142469Y146685D01*
X142266Y146787D01*
X142062Y146685D01*
X143942Y149784D02*
X144044Y149987D01*
X143942Y150190D01*
X144145Y150089D01*
X144348Y150190D01*
X144247Y149987D01*
X144348Y149784D01*
X144145Y149886D01*
X143942Y149784D01*
X139294Y161112D02*
X139395Y161316D01*
X139294Y161519D01*
X139497Y161417D01*
X139700Y161519D01*
X139599Y161316D01*
X139700Y161112D01*
X139497Y161214D01*
X139294Y161112D01*
X158242Y130836D02*
X158344Y131039D01*
X158242Y131242D01*
X158445Y131140D01*
X158649Y131242D01*
X158547Y131039D01*
X158649Y130836D01*
X158445Y130937D01*
X158242Y130836D01*
X159842Y145415D02*
X159944Y145618D01*
X159842Y145822D01*
X160046Y145720D01*
X160249Y145822D01*
X160147Y145618D01*
X160249Y145415D01*
X160046Y145517D01*
X159842Y145415D01*
X145009Y159131D02*
X145110Y159334D01*
X145009Y159538D01*
X145212Y159436D01*
X145415Y159538D01*
X145314Y159334D01*
X145415Y159131D01*
X145212Y159233D01*
X145009Y159131D01*
D54*
X156718Y158420D02*
G03*
X156718Y158420I-203J0D01*
G01*
X159258D02*
G03*
X159258Y158420I-203J0D01*
G01*
X161798D02*
G03*
X161798Y158420I-203J0D01*
G01*
M02*
