M48
;Layer_Color=9474304
;FILE_FORMAT=4:3
METRIC,TZ
;TYPE=PLATED
T1F00S00C0.381
T2F00S00C0.770
T3F00S00C1.000
T4F00S00C1.016
T5F00S00C3.000
%
T01
X161825Y126950
X161214Y135585
X158775Y139725
X159650Y143900
X160046Y145618
X160096Y150216
X159893Y156109
X162525Y155325
X162700Y141625
X156900Y145325
X156286Y147244
X153950Y148082
X151029Y148463
X151150Y147150
X150400
X147269Y146888
X144900Y145650
X142139Y145415
X142266Y146888
X142150Y150150
X144145Y149987
X144650Y153400
Y154150
X147900Y153900
Y153150
X150775Y153543
X150165Y154788
X149900Y157400
X147828Y157277
X153213Y156134
X153680Y155164
X155067Y154331
X157023Y153721
X156896Y156083
X155245Y150927
X151359Y149784
X152650Y141650
X152121Y137973
X151740Y137287
X152527
X153900Y136900
X150150
Y131900
X144400
X142900Y133400
Y136400
X140650Y134900
Y128650
X142900Y130150
Y126900
X152984Y127026
X158445Y131039
X157531Y135585
X148870Y142240
X145339Y140056
X141529Y141935
X139400Y154650
X141400Y157150
X142545Y158623
X135814Y151105
X126264Y136957
X126518Y168301
X131900Y167150
X133150Y168650
X133858Y165176
X131648Y164567
X135916Y160300
X139497Y161316
X141504Y162230
X141325Y165050
X141377Y167031
X145150Y168400
X146900Y167900
X148175Y166750
X149150Y163400
X153400Y163150
X153150Y166900
X155524Y168555
X144780Y163170
X145000Y160300
X145212Y159334
X143900Y159150
X140564Y159461
X159250Y160150
X159106Y167716
X161900Y165400
T02
X159055Y158420
X161595
X156515
T03
X159630Y133020
X161595Y140005
X156515Y137465
X157130Y133020
X154630
X152130
X148260Y140005
Y145085
X143180Y142545
X156515
X158400Y161860
X155860Y166940
X160940
T04
X129210Y134290
Y136830
Y140640
Y143180
X129275Y146930
Y149470
Y152010
X137465Y153340
Y155880
Y158420
Y149530
Y146990
Y143180
Y140640
Y136830
Y134290
Y130480
Y127940
Y162230
Y164770
Y167310
X129210
Y164770
T05
X128900Y129000
Y159000
M30
